<?xml version="1.0" standalone="no"?>
<!DOCTYPE svg PUBLIC "-//W3C//DTD SVG 20010904//EN"
 "http://www.w3.org/TR/2001/REC-SVG-20010904/DTD/svg10.dtd">
<svg version="1.0" xmlns="http://www.w3.org/2000/svg"
 width="3380.000000pt" height="3380.000000pt" viewBox="0 0 3380.000000 3380.000000"
 preserveAspectRatio="xMidYMid meet">

<g transform="translate(0.000000,3380.000000) scale(0.100000,-0.100000)"
fill="#000000" stroke="none">
<path d="M16245 33784 c-885 -39 -1711 -133 -2535 -290 -2026 -387 -3973
-1148 -5720 -2237 -3263 -2034 -5721 -5080 -7011 -8688 -474 -1327 -786 -2760
-908 -4174 -50 -574 -56 -724 -56 -1495 0 -770 6 -919 56 -1495 226 -2623
1079 -5180 2472 -7415 1945 -3121 4832 -5519 8240 -6844 1469 -571 3049 -939
4622 -1075 574 -50 724 -56 1495 -56 771 0 921 6 1495 56 2463 213 4862 975
7005 2224 3755 2189 6538 5758 7737 9920 299 1040 499 2118 592 3190 50 574
56 724 56 1495 0 771 -6 921 -56 1495 -227 2626 -1079 5179 -2472 7415 -2034
3263 -5080 5721 -8688 7011 -1329 474 -2765 787 -4179 909 -531 45 -695 52
-1390 55 -371 1 -711 1 -755 -1z m-10650 -7674 l1644 -1145 1 -9327 0 -9328
-1705 0 -1705 0 0 10475 0 10476 61 -3 60 -3 1644 -1145z m24375 -9325 l0
-10475 -1705 0 -1705 0 0 9298 0 9297 1703 1177 c936 647 1703 1177 1705 1177
1 1 2 -4713 2 -10474z m-12705 8255 c1879 -93 3773 -725 5187 -1731 208 -149
548 -415 548 -431 0 -5 -121 -183 -268 -396 -148 -213 -285 -411 -305 -441
l-37 -53 0 -3011 0 -3010 73 -96 c420 -553 672 -1184 786 -1971 45 -309 55
-468 56 -885 0 -410 -6 -508 -46 -795 -101 -716 -361 -1374 -769 -1945 l-100
-139 0 -1913 0 -1913 -1705 0 -1705 0 0 926 c0 877 -1 925 -17 920 -81 -23
-528 -86 -783 -111 -555 -53 -1241 -53 -1825 1 -468 42 -945 120 -1392 227
l-143 34 0 -998 0 -999 -1705 0 -1705 0 -2 1812 -3 1813 -85 63 c-170 125
-409 313 -571 449 -170 141 -469 404 -502 441 -19 20 -13 28 555 723 315 386
581 714 590 728 17 25 18 176 18 2740 l0 2714 -46 101 c-225 490 -358 1041
-408 1686 -68 882 19 1651 260 2318 200 550 492 1014 904 1436 379 388 840
718 1390 995 857 433 1818 666 2950 714 170 8 626 6 805 -3z m-5615 -20955
c132 -20 229 -49 339 -100 83 -40 221 -128 221 -141 0 -5 -195 -289 -210 -307
-4 -4 -46 17 -93 47 -205 128 -470 172 -581 95 -51 -35 -70 -68 -74 -130 -5
-71 19 -117 81 -153 47 -27 183 -72 335 -111 193 -49 325 -112 424 -203 95
-89 140 -186 154 -334 15 -165 -38 -319 -148 -434 -78 -81 -147 -124 -269
-165 -86 -30 -107 -33 -249 -37 -166 -5 -265 8 -391 49 -146 48 -312 142 -424
242 l-49 44 128 156 c71 86 130 157 131 157 2 0 23 -16 47 -36 59 -50 172
-126 233 -157 282 -142 565 -75 542 129 -11 98 -86 146 -332 213 -374 101
-532 187 -605 331 -35 69 -60 185 -60 279 0 171 48 289 161 396 160 150 412
213 689 170z m6551 -19 c179 -45 309 -118 447 -251 142 -135 238 -304 278
-490 12 -57 17 -123 17 -230 -1 -127 -5 -165 -26 -246 -48 -184 -127 -320
-263 -454 -131 -128 -265 -205 -444 -253 -84 -23 -115 -26 -270 -26 -195 -1
-282 15 -422 74 -156 67 -344 226 -442 374 -147 223 -191 553 -111 831 106
366 429 640 817 695 109 15 311 4 419 -24z m2260 1 c52 -14 128 -39 168 -56
69 -29 205 -114 263 -163 l27 -23 -110 -160 c-61 -88 -112 -161 -113 -162 -1
-1 -35 23 -75 53 -140 105 -235 137 -401 138 -172 0 -295 -49 -411 -165 -137
-136 -195 -348 -155 -567 41 -230 212 -411 424 -453 125 -24 340 4 445 57 l27
15 0 264 0 265 220 0 220 0 0 -344 0 -343 -52 -49 c-120 -112 -255 -186 -423
-231 -92 -25 -115 -27 -305 -27 -185 -1 -213 1 -290 22 -358 98 -629 380 -703
732 -25 123 -27 330 -2 445 85 402 414 709 831 775 101 16 306 4 415 -23z
m-6461 -207 l0 -190 -475 0 -475 0 0 -195 0 -195 428 -2 427 -3 3 -182 2 -183
-430 0 -430 0 0 -200 0 -200 495 0 495 0 0 -190 0 -190 -715 0 -715 0 0 960 0
960 695 0 695 0 0 -190z m1232 -325 c131 -280 242 -513 246 -517 5 -5 118 226
253 512 l244 520 293 0 292 0 0 -960 0 -960 -215 0 -215 0 -2 598 -3 597 -257
-518 -257 -518 -132 3 -132 3 -251 510 -251 510 -3 -592 -2 -593 -220 0 -220
0 0 960 0 960 296 -2 297 -3 239 -510z m7530 -427 c224 -519 410 -951 414
-960 6 -17 -9 -18 -223 -18 l-229 0 -89 205 -88 205 -402 0 -403 0 -88 -205
-89 -205 -227 0 c-126 0 -228 3 -228 7 0 4 185 436 412 960 l411 953 211 0
212 0 406 -942z"/>
<path d="M16510 21810 c-752 -46 -1298 -332 -1591 -832 -191 -326 -240 -817
-119 -1180 82 -244 247 -464 477 -638 419 -314 1264 -611 2972 -1044 425 -108
664 -172 716 -192 13 -6 15 90 15 869 l0 875 723 499 c397 275 722 504 722
509 0 20 -419 260 -705 404 -830 415 -1703 661 -2560 719 -217 15 -509 20
-650 11z"/>
<path d="M14820 13662 l0 -1739 128 -61 c920 -438 1807 -640 2609 -594 587 33
1021 166 1361 416 l62 46 0 1128 0 1129 -22 20 c-53 49 -255 170 -413 248
-458 225 -1173 458 -2105 686 -546 134 -1013 264 -1393 389 -118 38 -217 70
-221 70 -3 0 -6 -782 -6 -1738z"/>
<path d="M17808 3705 c-83 -21 -167 -67 -232 -126 -147 -134 -215 -306 -203
-513 9 -172 66 -303 183 -420 104 -105 228 -156 379 -156 159 0 271 47 386
160 82 82 135 174 164 285 22 82 22 251 0 335 -50 194 -195 360 -370 421 -79
27 -229 34 -307 14z"/>
<path d="M22032 3213 c-61 -142 -114 -266 -118 -275 -6 -17 9 -18 230 -18 130
0 236 2 236 4 0 6 -218 514 -228 532 -5 10 -45 -70 -120 -243z"/>
</g>
</svg>
